<?xml version="1.0" encoding="utf-8"?>
<!-- Generator: Adobe Illustrator 21.0.0, SVG Export Plug-In . SVG Version: 6.00 Build 0)  -->
<svg version="1.1" id="Capa_1" xmlns="http://www.w3.org/2000/svg" xmlns:xlink="http://www.w3.org/1999/xlink" x="0px" y="0px"
	 viewBox="0 0 213.6 43.4" style="enable-background:new 0 0 213.6 43.4;" xml:space="preserve">
<style type="text/css">
	.st0{fill:#FFFFFF;}
</style>
<title>logo_01</title>
<polygon class="st0" points="12.1,23.5 4.8,13.8 4.8,23.5 0,23.5 0,6.1 4.4,6.1 11.8,15.8 11.8,6.1 16.5,6.1 16.5,23.5 "/>
<polygon class="st0" points="17.3,10.1 17.3,12.8 25.5,12.8 25.5,16.8 17.3,16.8 17.3,19.5 26.6,19.5 26.6,23.5 12.1,23.5 12.1,6.1 
	29.1,6.1 29.1,10.1 "/>
<path class="st0" d="M43.9,16.1c0,4.6-3.2,7.6-8.1,7.6s-8.2-3-8.2-7.6v-10h5.2v10c-0.1,1.7,1.1,3.1,2.7,3.3c0.1,0,0.2,0,0.4,0
	c1.7,0,2.9-1.2,2.9-3.3v-10h5.2V16.1z"/>
<path class="st0" d="M53.8,19.4c2.4-0.1,4.2-2.1,4.2-4.5c0,0,0-0.1,0-0.1c0.2-2.4-1.6-4.4-4-4.5c0,0-0.1,0-0.1,0
	c-2.4,0.1-4.3,2.1-4.3,4.5c0,0,0,0,0,0.1C49.5,17.3,51.4,19.3,53.8,19.4C53.9,19.4,53.9,19.4,53.8,19.4L53.8,19.4z M64,25.8
	c-1.5,1.2-3.3,1.9-5.2,1.9c-2.5,0-4.8-1.7-5.6-4.1c-5.2-0.3-8.9-3.9-8.9-8.9s4-8.8,9.5-8.8s9.5,3.7,9.5,8.8c0,3.6-2.2,6.9-5.6,8.2
	c0.4,0.6,1,1,1.7,1c1.1-0.1,2.1-0.6,2.9-1.2L64,25.8z"/>
<path class="st0" d="M80,16.1c0,4.6-3.1,7.6-8.1,7.6s-8.2-3-8.2-7.6v-10h5.2v10c-0.1,1.7,1.1,3.1,2.7,3.2c0.1,0,0.3,0,0.4,0
	c1.7,0,2.9-1.2,2.9-3.3v-10H80V16.1z"/>
<path class="st0" d="M83.3,4.8h-3.7l2.7-4.5l4.3,1.5L83.3,4.8L83.3,4.8z M80,10.1v2.7h8.2v4H80v2.8h9.3v4H73.6l1.3-1.2V6.1h16.9v4
	L80,10.1z"/>
<polygon class="st0" points="102.7,23.5 95.3,13.8 95.3,23.5 90.6,23.5 90.6,6.1 95,6.1 102.3,15.8 102.3,6.1 107.1,6.1 107.1,23.5 
	"/>
<path class="st0" d="M2.8,34.4c0.4,0,0.9-0.1,1.2-0.4c0.5-0.6,0.5-1.4,0-1.9c-0.3-0.2-0.8-0.4-1.2-0.3H0.9v2.6L2.8,34.4z M3.1,31
	c0.6,0,1.2,0.2,1.6,0.5c0.7,0.9,0.7,2.2,0,3.1c-0.4,0.4-1,0.6-1.6,0.5H0.9V38H0v-7H3.1z"/>
<path class="st0" d="M16.8,34.2c0.2,0,0.4-0.1,0.5-0.2c0.1-0.1,0.3-0.2,0.4-0.4c0.1-0.2,0.1-0.4,0.1-0.6c0-0.3-0.1-0.6-0.3-0.9
	c-0.3-0.3-0.6-0.4-1-0.3h-2.3v2.4h2C16.5,34.3,16.7,34.3,16.8,34.2L16.8,34.2z M16.6,31c0.6,0,1.1,0.1,1.6,0.5
	c0.4,0.3,0.6,0.8,0.6,1.3c0,0.4-0.1,0.8-0.3,1.1c-0.2,0.3-0.5,0.6-0.9,0.7l0,0c0.2,0,0.3,0.1,0.5,0.2c0.1,0.1,0.2,0.2,0.3,0.3
	c0.1,0.1,0.1,0.3,0.2,0.4c0,0.2,0.1,0.3,0.1,0.5c0,0.2,0,0.4,0,0.5c0,0.2,0,0.4,0,0.5c0,0.2,0.1,0.3,0.1,0.5
	c0.1,0.1,0.2,0.3,0.3,0.4h-1c-0.1-0.1-0.1-0.2-0.1-0.3c0-0.1,0-0.3,0-0.4c0-0.2,0-0.3,0-0.5s0-0.4-0.1-0.5c0-0.2-0.1-0.3-0.1-0.5
	c0-0.1-0.1-0.3-0.2-0.4c-0.1-0.1-0.2-0.2-0.3-0.3C17,35,16.8,35,16.6,35h-2.4v3h-0.9v-7H16.6z"/>
<path class="st0" d="M27.7,35.6c0.1,0.3,0.2,0.7,0.4,0.9c0.2,0.3,0.5,0.5,0.8,0.7c0.3,0.2,0.7,0.3,1.1,0.3c0.4,0,0.8-0.1,1.1-0.3
	c0.3-0.2,0.6-0.4,0.8-0.7c0.2-0.3,0.4-0.6,0.4-0.9c0.2-0.7,0.2-1.4,0-2.1c-0.1-0.3-0.2-0.6-0.4-0.9c-0.4-0.6-1.1-0.9-1.9-0.9
	c-0.4,0-0.8,0.1-1.1,0.3c-0.3,0.2-0.6,0.4-0.8,0.7c-0.2,0.3-0.4,0.6-0.4,0.9C27.5,34.2,27.5,34.9,27.7,35.6L27.7,35.6z M26.8,33.1
	c0.1-0.4,0.3-0.8,0.6-1.2c0.3-0.3,0.6-0.6,1-0.8c0.5-0.2,1-0.3,1.5-0.3c0.5,0,1,0.1,1.5,0.3c0.4,0.2,0.8,0.5,1.1,0.8
	c0.3,0.4,0.5,0.8,0.6,1.2c0.3,0.9,0.3,1.9,0,2.8c-0.1,0.4-0.4,0.8-0.6,1.2c-0.3,0.3-0.7,0.6-1.1,0.8c-0.5,0.2-1,0.3-1.5,0.3
	c-0.5,0-1-0.1-1.5-0.3c-0.4-0.2-0.8-0.5-1-0.8c-0.3-0.3-0.5-0.7-0.6-1.2C26.5,35,26.5,34,26.8,33.1L26.8,33.1z"/>
<polygon class="st0" points="43.1,38 40.7,31 41.7,31 43.7,37.1 43.7,37.1 45.7,31 46.7,31 44.2,38 "/>
<rect x="54.4" y="31" class="st0" width="0.9" height="7.1"/>
<polygon class="st0" points="64.8,31 68.6,36.7 68.6,36.7 68.6,31 69.5,31 69.5,38 68.4,38 64.8,32.4 64.7,32.4 64.7,38 63.8,38 
	63.8,31 "/>
<path class="st0" d="M82.2,32c-0.4-0.3-0.8-0.4-1.3-0.4c-0.4,0-0.7,0.1-1.1,0.2c-0.3,0.1-0.6,0.4-0.8,0.6c-0.2,0.3-0.3,0.6-0.4,0.9
	c-0.1,0.3-0.1,0.7-0.1,1.1c0,0.4,0,0.8,0.1,1.1c0.1,0.3,0.2,0.7,0.4,1c0.2,0.3,0.5,0.5,0.8,0.6c0.3,0.2,0.7,0.3,1.1,0.2
	c0.3,0,0.6,0,0.8-0.1c0.5-0.2,0.8-0.6,1-1.1c0.1-0.3,0.2-0.5,0.2-0.8h0.9c0,0.8-0.4,1.5-0.9,2.1c-0.6,0.5-1.3,0.8-2.1,0.8
	c-0.5,0-1-0.1-1.4-0.3c-0.4-0.2-0.7-0.4-1-0.8c-0.3-0.3-0.5-0.7-0.6-1.2c-0.1-0.5-0.2-1-0.2-1.4c0-0.5,0.1-1,0.2-1.5
	c0.1-0.4,0.3-0.8,0.6-1.2c0.3-0.3,0.6-0.6,1.1-0.8c0.4-0.2,0.9-0.3,1.4-0.3c0.4,0,0.7,0.1,1.1,0.1c0.3,0.1,0.6,0.2,0.9,0.4
	c0.3,0.2,0.5,0.4,0.6,0.7c0.2,0.3,0.3,0.6,0.3,1h-0.9C82.8,32.7,82.5,32.3,82.2,32z"/>
<rect x="92" y="31" class="st0" width="0.9" height="7.1"/>
<path class="st0" d="M105,35.1l-1.2-3.3l0,0l-1.2,3.3H105z M104.4,31l2.8,7h-1l-0.8-2.1h-3l-0.8,2.1h-1l2.8-7H104.4z"/>
<path class="st0" d="M147.6,12.3c0.1,1.6-1.1,3-2.7,3.1c-0.2,0-0.4,0-0.5,0c-1.2,0-2.4-0.5-3.2-1.5l1.1-1.6c0.5,0.6,1.2,0.9,2,1
	c0.6,0,1-0.4,1-1.1V7.8H142V5.9h5.6L147.6,12.3z"/>
<path class="st0" d="M158.1,11.4c0,2.5-1.6,4-4.3,4s-4.3-1.6-4.3-4V5.9h2.4v5.4c-0.1,1,0.7,1.9,1.8,2c0.1,0,0.2,0,0.2,0
	c1,0,1.9-0.8,1.9-1.8c0-0.1,0-0.1,0-0.2V5.9h2.4L158.1,11.4z"/>
<polygon class="st0" points="166.7,15.3 162.4,9.5 162.4,15.3 160.2,15.3 160.2,5.9 162.3,5.9 166.6,11.7 166.6,5.9 168.8,5.9 
	168.8,15.3 "/>
<polygon class="st0" points="175.3,7.8 175.3,15.3 173,15.3 173,7.8 170.2,7.8 170.2,5.9 178.1,5.9 178.1,7.8 "/>
<path class="st0" d="M180.9,10.6c0,1.5,1.1,2.8,2.6,2.8c0,0,0,0,0,0c1.5,0,2.6-1.3,2.6-2.7c0,0,0,0,0-0.1c0.1-1.5-1.1-2.7-2.5-2.8
	c0,0,0,0-0.1,0C182,7.9,180.8,9.1,180.9,10.6C180.8,10.6,180.8,10.6,180.9,10.6z M188.5,10.6c-0.2,2.8-2.6,4.9-5.4,4.7
	c-2.5-0.2-4.6-2.2-4.7-4.7c0.2-2.8,2.6-4.9,5.4-4.7C186.3,6,188.4,8.1,188.5,10.6z"/>
<path class="st0" d="M197.4,6.9l-0.9,1.8c-0.9-0.6-1.9-0.9-3-1c-0.6,0-1,0.2-1,0.7c0,1.6,4.9,0.7,4.9,4.1c0,1.9-1.6,2.9-3.7,2.9
	c-1.5,0-3.1-0.5-4.3-1.5l0.9-1.8c0.9,0.8,2.1,1.3,3.4,1.4c0.7,0,1.2-0.3,1.2-0.8c0-1.6-4.9-0.7-4.9-4c0-1.7,1.5-2.8,3.7-2.8
	C195,5.8,196.3,6.2,197.4,6.9z"/>
<path class="st0" d="M144.6,22.4h1.6c1,0,1.6-0.5,1.6-1.5s-0.6-1.5-1.6-1.5h-1.6V22.4L144.6,22.4z M146.3,17.6
	c2.4,0,3.8,1.2,3.8,3.3s-1.4,3.5-3.8,3.5h-1.7v2.6h-2.4v-9.3L146.3,17.6z"/>
<path class="st0" d="M153.4,22.3c0,1.5,1.1,2.7,2.6,2.8c1.5,0,2.6-1.3,2.6-2.7c0,0,0,0,0,0c0.1-1.5-1.1-2.7-2.5-2.8c0,0,0,0-0.1,0
	C154.6,19.5,153.4,20.8,153.4,22.3C153.4,22.3,153.4,22.3,153.4,22.3z M161.1,22.3c-0.1,2.8-2.5,5-5.3,4.8c-2.6-0.1-4.7-2.2-4.8-4.8
	c0.1-2.8,2.5-5,5.3-4.8C158.9,17.6,161,19.7,161.1,22.3z"/>
<path class="st0" d="M165.1,25h1.7c1.4,0,2.5-1.2,2.5-2.5c0-0.1,0-0.1,0-0.2c0.1-1.4-1-2.7-2.4-2.8c-0.1,0-0.1,0-0.2,0h-1.6
	L165.1,25L165.1,25z M166.7,17.6c2.9,0,5,1.9,5,4.7s-2.1,4.7-5.1,4.7h-3.9v-9.3L166.7,17.6z"/>
<polygon class="st0" points="175.7,19.5 175.7,21.3 180.1,21.3 180.1,23.2 175.7,23.2 175.7,25.1 180.8,25.1 180.8,26.9 173.3,26.9 
	173.3,17.6 180.6,17.6 180.6,19.5 "/>
<polygon class="st0" points="190.8,26.9 190.8,20.9 188.6,26 187,26 184.8,20.9 184.8,26.9 182.7,26.9 182.7,17.6 185.3,17.6 
	187.8,23.2 190.3,17.6 192.9,17.6 192.9,26.9 "/>
<path class="st0" d="M197,22.3c0,1.5,1.1,2.7,2.6,2.8c0,0,0,0,0,0c1.5,0,2.6-1.3,2.6-2.7c0,0,0,0,0,0c0.1-1.5-1.1-2.7-2.5-2.8
	c0,0,0,0-0.1,0C198.2,19.5,197,20.7,197,22.3C197,22.2,197,22.3,197,22.3z M204.7,22.3c-0.2,2.8-2.6,4.9-5.4,4.7
	c-2.5-0.2-4.6-2.2-4.7-4.7c0.2-2.8,2.6-4.9,5.4-4.7C202.5,17.7,204.5,19.7,204.7,22.3z"/>
<path class="st0" d="M213.5,18.5l-0.9,1.9c-0.9-0.6-1.9-0.9-3-1c-0.6,0-1,0.2-1,0.7c0,1.6,4.9,0.7,4.9,4.1c0,1.9-1.6,2.9-3.7,2.9
	c-1.5,0-3.1-0.5-4.3-1.5l0.9-1.8c0.9,0.8,2.1,1.3,3.4,1.4c0.8,0,1.2-0.3,1.2-0.8c0-1.6-4.9-0.7-4.9-4c0-1.7,1.5-2.8,3.7-2.8
	C211.2,17.5,212.4,17.9,213.5,18.5z"/>
<polygon class="st0" points="150.4,38.6 150.3,32.5 148.1,37.7 146.6,37.7 144.3,32.5 144.3,38.6 142.2,38.6 142.2,29.2 144.8,29.2 
	147.3,34.8 149.9,29.2 152.4,29.2 152.4,38.6 "/>
<path class="st0" d="M158.9,31.6l-1.4,3.5h2.7C160.2,35.1,158.9,31.6,158.9,31.6z M156.8,36.9l-0.7,1.7h-2.4l4-9.3h2.4l3.9,9.3h-2.5
	l-0.7-1.7H156.8z"/>
<path class="st0" d="M172.6,30.2l-0.9,1.8c-0.9-0.6-1.9-0.9-3-1c-0.6,0-1,0.2-1,0.7c0,1.6,4.9,0.7,4.9,4.1c0,1.9-1.6,2.9-3.7,2.9
	c-1.5,0-3.1-0.5-4.3-1.5l0.9-1.8c0.9,0.8,2.1,1.3,3.4,1.4c0.8,0,1.2-0.3,1.2-0.8c0-1.7-4.9-0.7-4.9-4c0-1.7,1.5-2.8,3.7-2.8
	C170.2,29.1,171.5,29.5,172.6,30.2z"/>
<rect x="125.1" y="0" class="st0" width="1" height="43.4"/>
<polygon class="st0" points="158.8,28.5 159.9,26.7 161.6,27.3 160.2,28.5 "/>
</svg>
