<svg xmlns="http://www.w3.org/2000/svg" viewBox="0 0 82.26 27.03"><defs><style>.cls-1{fill:#fff;}</style></defs><title>logo_03</title><g id="texto"><path class="cls-1" d="M4,27h1.7l-1.4-2.22a2.14,2.14,0,0,0,1.26-2.07c0-1.48-1-2.29-2.73-2.29H0V27H1.48V25.11H3Zm0,0Zm-2.51-3.1V21.64H2.81c.81,0,1.33.37,1.33,1.11a1.17,1.17,0,0,1-1.33,1.18Zm0,0Zm10.34-2.29V20.45H6.87V27H12V25.77H8.34v-1.4h3.18V23.11H8.34V21.64Zm0,0Zm1.4-1.18V27h2.73a3.26,3.26,0,0,0,3.47-3.32A3.18,3.18,0,0,0,16,20.45Zm0,0Zm1.48,1.26H16a1.88,1.88,0,0,1,1.92,2A1.9,1.9,0,0,1,16,25.77H14.69Z"/><line class="cls-1" x1="9.08" y1="5.54" x2="9.38" y2="5.98"/><line class="cls-1" x1="9.97" y1="7.01" x2="10.26" y2="7.46"/><line class="cls-1" x1="10.85" y1="8.49" x2="11.15" y2="8.93"/><line class="cls-1" x1="11.67" y1="9.97" x2="11.96" y2="10.41"/><line class="cls-1" x1="12.55" y1="11.45" x2="12.85" y2="11.96"/><line class="cls-1" x1="16.1" y1="8.49" x2="15.95" y2="9.01"/><line class="cls-1" x1="15.73" y1="10.19" x2="15.65" y2="10.71"/><line class="cls-1" x1="15.43" y1="11.89" x2="15.36" y2="12.33"/><line class="cls-1" x1="14.92" y1="6.05" x2="14.4" y2="5.91"/><line class="cls-1" x1="13.37" y1="5.46" x2="12.77" y2="5.24"/><line class="cls-1" x1="11.74" y1="4.87" x2="11.22" y2="4.65"/><line class="cls-1" x1="6.28" y1="5.46" x2="6.13" y2="6.05"/><line class="cls-1" x1="5.76" y1="7.24" x2="5.54" y2="7.75"/><line class="cls-1" x1="5.17" y1="8.93" x2="5.02" y2="9.45"/><line class="cls-1" x1="6.05" y1="14.18" x2="6.57" y2="14.33"/><line class="cls-1" x1="7.68" y1="14.62" x2="8.27" y2="14.77"/><line class="cls-1" x1="9.38" y1="14.99" x2="9.89" y2="15.14"/><line class="cls-1" x1="11" y1="15.43" x2="11.45" y2="15.51"/><path class="cls-1" d="M7.68.81h.07A2.49,2.49,0,0,1,9,1.18a3,3,0,0,1,1,1,2.43,2.43,0,0,1,.3,1.26h0A2.43,2.43,0,0,1,10,4.65a3,3,0,0,1-1,1,2.43,2.43,0,0,1-1.26.3,2.7,2.7,0,0,1-1.33-.3,2.24,2.24,0,0,1-.89-1A1.93,1.93,0,0,1,5.17,3.4a1.93,1.93,0,0,1,.37-1.26,2.24,2.24,0,0,1,.89-1A2.72,2.72,0,0,1,7.68.81Z"/><path class="cls-1" d="M14.69,12.26h0a3,3,0,0,1,1.62.44,2.79,2.79,0,0,1,1.26,1.18A3.16,3.16,0,0,1,18,15.51h0a3.43,3.43,0,0,1-.44,1.7,3,3,0,0,1-1.18,1.18,3.43,3.43,0,0,1-1.7.44,3.16,3.16,0,0,1-1.62-.44,3,3,0,0,1-1.18-1.18,3.43,3.43,0,0,1-.44-1.7,3.16,3.16,0,0,1,.44-1.62,3,3,0,0,1,1.18-1.18A3.16,3.16,0,0,1,14.69,12.26Z"/><path class="cls-1" d="M4.14,9.67h0a2.7,2.7,0,0,1,1.33.3,3.45,3.45,0,0,1,1,1,2.7,2.7,0,0,1,.3,1.33h0a3,3,0,0,1-.3,1.4,3.21,3.21,0,0,1-1,1,2.76,2.76,0,0,1-1.33.37,2.55,2.55,0,0,1-1.33-.37,3.21,3.21,0,0,1-1-1,3.06,3.06,0,0,1-.37-1.4A2.76,2.76,0,0,1,1.77,11a4.31,4.31,0,0,1,1-1A3,3,0,0,1,4.14,9.67Z"/><path class="cls-1" d="M16.1,5.54H16a1.49,1.49,0,0,1,.81.22,1.16,1.16,0,0,1,.52.52,1.25,1.25,0,0,1,.22.74h0a1.25,1.25,0,0,1-.22.74.88.88,0,0,1-.52.52,1.42,1.42,0,0,1-.74.22,1.25,1.25,0,0,1-.74-.22.83.83,0,0,1-.59-.52,1.34,1.34,0,0,1,0-1.48,1,1,0,0,1,.59-.52A1.19,1.19,0,0,1,16,5.54Z"/><path class="cls-1" d="M25.48,21.19v-.37H23.7v.37h.74v1.92h.37V21.19Zm0,0Zm2,0v-.37H25.84v2.29h1.62v-.37H26.21v-.59h1.11v-.37H26.21v-.59Zm0,0Zm1.48-.37A1.17,1.17,0,0,0,27.76,22a1.15,1.15,0,0,0,1.18,1.11,1.36,1.36,0,0,0,.89-.37l-.22-.22a1.19,1.19,0,0,1-.66.22.76.76,0,0,1-.81-.74.82.82,0,0,1,.81-.81.9.9,0,0,1,.66.3l.22-.3A1.36,1.36,0,0,0,28.95,20.82Zm0,0Zm3.18,2.29V20.82h-.37v1.62l-1.18-1.62H30.2v2.29h.37V21.49l1.18,1.62Zm0,0Zm1.62-2.29A1.17,1.17,0,0,0,32.56,22a1.18,1.18,0,0,0,2.36,0A1.17,1.17,0,0,0,33.75,20.82Zm0,0Zm0,.37a.81.81,0,1,1-.81.81A.82.82,0,0,1,33.75,21.19Zm0,0Zm2,1.55V20.82h-.37v2.29H36.7v-.37Zm0,0Zm2.36-1.92A1.17,1.17,0,0,0,36.92,22a1.18,1.18,0,0,0,2.36,0A1.17,1.17,0,0,0,38.1,20.82Zm0,0Zm0,.37a.81.81,0,1,1-.81.81A.82.82,0,0,1,38.1,21.19Zm0,0Zm3.1.81v.59a1,1,0,0,1-.52.22.81.81,0,1,1,.59-1.4l.22-.22a1.2,1.2,0,0,0-2.07.81,1.15,1.15,0,0,0,1.18,1.11,1.81,1.81,0,0,0,.89-.3V22Zm0,0Zm1.26,1.11V20.82H42v2.29Zm0,0Zm2-.52.22.52h.44l-1-2.29h-.44l-1,2.29h.37l.22-.52Zm0,0Zm-.15-.3h-.81l.44-1Zm0,0Zm1.85-1.48c-.52,0-.89.22-.89.66,0,.81,1.26.52,1.26,1q0,.22-.44.22a1.06,1.06,0,0,1-.74-.3l-.15.3a1.22,1.22,0,0,0,.89.37c.52,0,.89-.22.89-.66,0-.81-1.26-.52-1.26-1,0-.15.15-.22.37-.22a1.19,1.19,0,0,1,.66.22L47,21A1.68,1.68,0,0,0,46.15,20.82Zm0,0Zm2.07,0v2.29h1A1.09,1.09,0,0,0,50.29,22a1.11,1.11,0,0,0-1.11-1.18Zm0,0Zm.37.37h.59a.72.72,0,0,1,.74.81.7.7,0,0,1-.74.74h-.59Zm0,0Zm3.77,0v-.37H50.73v2.29h1.62v-.37H51.1v-.59h1.11v-.37H51.1v-.59Zm0,0Zm1.7,1.55V20.82h-.37v2.29H55v-.37Zm0,0Zm2.81-.15.22.52h.44l-1-2.29h-.37l-1,2.29h.37l.22-.52Zm0,0Zm-.15-.3H55.9l.44-1Zm0,0Zm2.29.81V20.82h-.37v2.29Zm0,0Zm2.58,0V20.82h-.37v1.62L60,20.82h-.37v2.29H60V21.49l1.26,1.62Zm0,0Zm2.07-1.92v-.37H62.17v2.29h.37v-1h1v-.3h-1v-.66Zm0,0Zm1.4-.37A1.17,1.17,0,0,0,63.87,22a1.18,1.18,0,0,0,2.36,0A1.17,1.17,0,0,0,65.05,20.82Zm0,0Zm0,.37a.81.81,0,1,1-.81.81A.82.82,0,0,1,65.05,21.19Zm0,0Zm3,1.92h.44L68,22.37a.8.8,0,0,0,.52-.74c0-.52-.37-.81-1-.81h-1v2.29H67v-.66h.59Zm0,0Zm-1-1v-.89h.52c.37,0,.52.15.52.44s-.15.44-.52.44Zm0,0Zm4.36,1V20.82H71l-.81,1.55-.66-1.55H69v2.29h.37v-1.7l.74,1.48h.22L71,21.41v1.7Zm0,0Zm2-.52.3.52h.37l-1-2.29h-.44l-1,2.29h.37l.22-.52Zm0,0Zm-.15-.3h-.81l.44-1Zm0,0Zm2.07-1.48A1.17,1.17,0,0,0,74.14,22a1.15,1.15,0,0,0,1.18,1.11,1.53,1.53,0,0,0,.89-.37l-.3-.22a.84.84,0,0,1-.59.22A.76.76,0,0,1,74.5,22a.82.82,0,0,1,.81-.81.67.67,0,0,1,.59.3l.22-.3A1.18,1.18,0,0,0,75.32,20.82Zm0,0Zm1.62,2.29V20.82h-.37v2.29Zm0,0Zm1.62-2.29a1.15,1.15,0,1,0,0,2.29A1.15,1.15,0,0,0,79.75,22,1.17,1.17,0,0,0,78.57,20.82Zm0,0Zm0,.37a.82.82,0,0,1,0,1.62.81.81,0,1,1,0-1.62Zm0,0Zm3.54,1.92V20.82h-.37v1.62l-1.26-1.62h-.37v2.29h.44V21.49l1.18,1.62Zm0,0Zm-57.23,3.1.81-1.48h-.37l-.59,1.11-.66-1.11H23.7l.81,1.55V27h.37Zm0,0Zm3.54-1.48a1.15,1.15,0,0,0-1.18,1.11A1.17,1.17,0,0,0,28.43,27a1.19,1.19,0,0,0,.81-.37l-.22-.3a.67.67,0,0,1-.59.3.82.82,0,0,1-.81-.81.76.76,0,0,1,.81-.74.67.67,0,0,1,.59.3l.22-.3A1.18,1.18,0,0,0,28.43,24.74Zm0,0Zm2.22,0a1.15,1.15,0,0,0-1.18,1.11,1.18,1.18,0,0,0,2.36,0A1.15,1.15,0,0,0,30.64,24.74Zm0,0Zm0,.37a.7.7,0,0,1,.74.74.72.72,0,0,1-.74.81.77.77,0,0,1-.81-.81A.76.76,0,0,1,30.64,25.11Zm0,0Zm4,1.92V24.74h-.44l-.74,1.48-.74-1.48h-.52V27h.37v-1.7l.74,1.48h.22l.74-1.48V27Zm0,0Zm2.51-2.29h-.37v1.33a.54.54,0,0,1-.59.59c-.44,0-.66-.22-.66-.59V24.74h-.37v1.33a.91.91,0,0,0,1,1,.89.89,0,0,0,1-1Zm0,0ZM39.65,27V24.74h-.37v1.62L38,24.74h-.37V27H38V25.4L39.28,27Zm0,0Zm1,0V24.74h-.37V27Zm0,0Zm1.62-2.29a1.15,1.15,0,0,0-1.18,1.11A1.17,1.17,0,0,0,42.24,27a1.06,1.06,0,0,0,.81-.37l-.15-.3a.9.9,0,0,1-.66.3.82.82,0,0,1-.81-.81.76.76,0,0,1,.81-.74.9.9,0,0,1,.66.3l.15-.3A1.06,1.06,0,0,0,42.24,24.74Zm0,0Zm2.66,1.77.22.52h.44l-1-2.29h-.37L43.2,27h.37l.22-.52Zm0,0Zm-.15-.37h-.81l.44-1Zm0,0Zm2.07-1.4a1.18,1.18,0,0,1,.81.37l-.22.3a.67.67,0,0,0-.59-.3.76.76,0,0,0-.81.74.82.82,0,0,0,.81.81.67.67,0,0,0,.59-.3l.22.3a1.22,1.22,0,0,1-.89.37,1.15,1.15,0,1,1,.07-2.29Zm0,0ZM48.44,27V24.74h-.37V27Zm0,0ZM50,24.74a1.15,1.15,0,0,0-1.18,1.11A1.17,1.17,0,0,0,50,27a1.15,1.15,0,1,0,0-2.29Zm0,0Zm0,.37a.76.76,0,0,1,.81.74.77.77,0,0,1-.81.81.82.82,0,0,1-.81-.81A.76.76,0,0,1,50,25.11Zm0,0ZM53.61,27V24.74h-.37v1.62L52,24.74h-.37V27H52V25.4L53.24,27Zm0,0Zm2-2.29V27H56v-.66h.52a.81.81,0,0,0,.89-.89c0-.44-.37-.74-.89-.74Zm0,0Zm.37.37h.52c.3,0,.52.15.52.44s-.22.44-.52.44H56Zm0,0Zm3.1,1.4H57.89l-.15.52H57.3l1-2.29h.44l1,2.29h-.37Zm0,0Zm-.15-.37-.44-1-.44,1Zm0,0Zm2.51.89h.44l-.52-.81c.3-.07.44-.37.44-.74s-.3-.74-.89-.74H60V27h.44v-.66H61Zm0,0Zm-1-1v-.89h.52c.3,0,.52.15.52.44s-.22.44-.52.44Zm0,0Zm3.4.52L64,27h.37l-1-2.29h-.37L62,27h.37l.22-.52Zm0,0Zm-.15-.37h-.89l.44-1Zm0,0Zm2.81.52V24.74h-.37V27h1.33v-.37Zm0,0Zm2.88-.15.22.52h.37l-1-2.29h-.44l-1,2.29h.37l.22-.52Zm0,0Zm-.15-.37H68.3l.44-1Zm0,0Zm3.18-1.4c-.52,0-.81.22-.81.66,0,.74,1.26.52,1.26,1,0,.22-.22.3-.44.3a2.19,2.19,0,0,1-.81-.3l-.15.3a1.4,1.4,0,0,0,1,.37c.44,0,.81-.22.81-.66,0-.81-1.18-.52-1.18-1,0-.15.15-.22.37-.22a1.7,1.7,0,0,1,.66.22l.15-.37A1.49,1.49,0,0,0,72.36,24.74Zm0,0Zm2.73,1.77.22.52h.37l-1-2.29h-.37l-1,2.29h.37l.22-.52Zm0,0Zm-.15-.37h-.89l.44-1Zm0,0Zm1.4.52V24.74H76V27h1.4v-.37Zm0,0Zm3.32-1.92h-.44v1.33a.59.59,0,0,1-1.18,0V24.74h-.37v1.33a.89.89,0,0,0,1,1,1,1,0,0,0,1-1Zm0,0Zm.52,0V27h.89a1.12,1.12,0,0,0,1.18-1.18,1.11,1.11,0,0,0-1.18-1.11Zm0,0Zm.37.37h.52a.76.76,0,0,1,.81.74.72.72,0,0,1-.74.81h-.59Z"/><polygon class="cls-1" points="39.06 4.28 39.06 0.81 23.7 0.81 23.7 4.28 29.24 4.28 29.24 19.2 33.38 19.2 33.38 4.28 39.06 4.28"/><rect class="cls-1" x="41.5" y="6.5" width="4.21" height="12.7"/><path class="cls-1" d="M58.48.66c-5.61,0-9.82,4-9.82,9.3a9.3,9.3,0,0,0,9.6,9.38,10.65,10.65,0,0,0,7.46-3.25l-2.44-2.66a7,7,0,0,1-4.8,2.14,5.58,5.58,0,0,1-5.61-5.69,5.58,5.58,0,0,1,5.61-5.69,6.51,6.51,0,0,1,4.8,2.44l2.44-3A10.69,10.69,0,0,0,58.48.66Z"/><path class="cls-1" d="M75.17.59C70.89.59,68,2.73,68,6.05c0,6.5,9.82,4.5,9.82,8,0,1.11-1,1.77-2.73,1.77A10.77,10.77,0,0,1,68.6,13L67,16.39a12.7,12.7,0,0,0,8.12,3c4.06,0,7.16-1.92,7.16-5.61,0-6.57-9.75-4.65-9.75-8,0-1,.89-1.55,2.29-1.55a12.6,12.6,0,0,1,5.76,1.92l1.62-3.47A13.48,13.48,0,0,0,75.17.59Z"/><path class="cls-1" d="M43.71,0a2.47,2.47,0,0,1,2.51,2.44,2.47,2.47,0,0,1-4.95,0A2.46,2.46,0,0,1,43.71,0Z"/></g></svg>